<?xml version="1.0" encoding="UTF-8"?>
<!DOCTYPE svg PUBLIC "-//W3C//DTD SVG 1.1//EN" "http://www.w3.org/Graphics/SVG/1.1/DTD/svg11.dtd">
<!-- Creator: CorelDRAW 2021 (64-Bit) -->
<svg xmlns="http://www.w3.org/2000/svg" xml:space="preserve" width="115.106mm" height="20.9532mm" version="1.1" style="shape-rendering:geometricPrecision; text-rendering:geometricPrecision; image-rendering:optimizeQuality; fill-rule:evenodd; clip-rule:evenodd"
viewBox="0 0 11496.4 2092.73"
 xmlns:xlink="http://www.w3.org/1999/xlink"
 xmlns:xodm="http://www.corel.com/coreldraw/odm/2003">
 <defs>
  <style type="text/css">
   <![CDATA[
    .fil0 {fill:#2B2A29}
   ]]>
  </style>
 </defs>
 <g id="Layer_x0020_1">
  <metadata id="CorelCorpID_0Corel-Layer"/>
  <g id="_1850643727040">
   <polygon class="fil0" points="4727.21,199.82 4305.56,199.82 4305.56,1155.1 4043.83,1155.1 4043.83,199.82 3628.65,199.82 3628.65,4.48 4727.21,4.48 "/>
   <path class="fil0" d="M5632.84 757.07c0,147.98 -46.31,261.51 -138.93,340.31 -85.08,72.49 -200.85,108.62 -347.35,108.62 -146.46,0 -260.08,-32.85 -340.85,-98.76 -93.72,-75.53 -140.57,-193.43 -140.57,-353.44 0,-133.78 50.63,-239.09 151.85,-315.72 90.48,-69.18 201.95,-103.67 334.42,-103.67 145.4,0 262,36.92 349.76,111.08 87.8,73.86 131.67,177.8 131.67,311.58zm-250.4 -1.64c0,-69.21 -21.26,-127.2 -63.79,-173.72 -42.56,-46.78 -100.46,-70.04 -173.69,-70.04 -66.77,0 -121.95,23.82 -165.59,71.68 -43.63,47.59 -65.43,107.79 -65.43,180.28 0,83.45 22.07,149.91 66.24,199.17 44.17,49.5 101.22,74.13 171.24,74.13 79.7,0 138.94,-25.73 177.71,-77.43 35.57,-47.05 53.31,-115.17 53.31,-204.06z"/>
   <path class="fil0" d="M6607.95 1184.64l-429.72 0c-78.62,0 -134.1,-3.85 -166.42,-11.5 -53.84,-13.13 -96.91,-41.58 -129.22,-85.35 -36.63,-50.33 -54.94,-107.78 -54.94,-172.35l0 -581.04 224.58 0 0 562.99c0,27.37 11.83,50.9 35.53,70.58 23.71,19.69 48.99,29.54 75.92,29.54l219.73 0 0 -663.12 224.55 0 0 850.24z"/>
   <path class="fil0" d="M7575 1184.64l-352.2 0c-130.33,0 -232.89,-38.56 -307.77,-115.7 -74.84,-77.16 -112.27,-178.67 -112.27,-304.49 0,-121.45 35.56,-222.14 106.62,-302.02 76.48,-85.35 181.49,-128.03 315.03,-128.03l350.6 0 0 196.98 -318.29 0c-59.24,0 -109.86,24.06 -151.85,72.22 -42,48.13 -62.99,103.4 -62.99,165.76 0,63.46 19.93,118.17 59.78,164.16 39.85,45.95 89.37,68.91 148.61,68.91l324.75 0 0 182.2z"/>
   <path class="fil0" d="M8645.42 608.52l0 559.72 -227.81 0 0 -516.21c0,-15.6 -0.53,-33.65 -1.61,-54.43 -1.07,-21.06 -9.71,-39.67 -25.58,-56.08 -16.14,-16.71 -32.58,-27.38 -49.26,-32.29 -16.44,-4.94 -37.16,-7.38 -61.67,-7.38l-191.44 0 0 666.4 -227.8 0 0 -1147.34 227.8 0 0 297.1 277.87 0c46.04,0 82.94,4.1 110.93,12.29 27.73,8.22 56.83,26.27 87.5,54.17 30.44,27.91 51.71,59.39 63.29,94.38 11.85,35.03 17.78,78.23 17.78,129.67z"/>
   <path class="fil0" d="M9470.28 478.85l-218.12 0 0 385.73c0,35.03 11.86,64 35.57,86.99 26.92,22.99 62.45,34.46 106.62,34.46l66.23 0 0 165.79 -208.41 0c-62.45,0 -115.76,-22.99 -159.92,-68.94 -25.86,-27.37 -42.53,-57.45 -50.07,-90.27 -7.56,-32.82 -11.32,-71.68 -11.32,-116.54l0 -397.23 -142.17 0 0 -177.26 142.17 0 0 -297.1 221.31 0 0 297.1 218.12 0 0 177.26z"/>
   <path class="fil0" d="M10371.06 1156.74l-394.19 0c-95.84,0 -179.05,-41.84 -249.6,-125.55 -70.52,-83.72 -105.82,-180.28 -105.82,-289.72 0,-119.27 38.51,-222.41 115.53,-309.41 77.01,-86.99 162.91,-130.47 257.67,-130.47l374.81 0 0 175.62 -274.65 0c-34.46,0 -63.79,3.01 -88.03,9.02 -24.25,6.02 -46.58,17.79 -67.04,35.3 -37.7,32.82 -56.56,77.16 -56.56,132.95l484.67 0 0 177.29 -484.67 0c0,26.24 2.98,48.43 8.88,66.48 5.92,18.05 18.05,36.1 36.62,54.14 18.32,18.08 40.12,30.1 65.43,36.13 25.59,6.01 56.56,9.02 93.43,9.02l283.52 0 0 159.21z"/>
   <path class="fil0" d="M10822.73 1151.82l-227.77 0 0 -1147.31 227.77 0 0 1147.31zm524.51 7.42l-215.05 -1.88 -3.1 -247.1c-6.55,-69.74 -58.19,-72.87 -97.24,-84.28l-209.12 1.13 0 -98.25 374.33 -430.56 299.34 0 -345.08 398.21c136.07,-6.87 181.64,19.6 194.83,95.78l1.1 366.95z"/>
   <path class="fil0" d="M-0 1157.04c160.98,0 321.96,0 482.93,0 21.83,0 151.34,-2.47 160.98,1.25 -4.18,9.41 -7.94,18.14 -12.21,28.04 -4.19,9.73 -8.99,19.5 -12.75,28.74 -3.96,9.7 -8.55,19.48 -12.73,28.77 -29.89,66.44 -59.89,140.67 -90.15,205.4l-25.62 58.66c-17.03,38.9 -34.11,78.29 -51.51,117.02l-51.05 116.21c-11.12,26.61 -25.85,61.92 -38.26,87.51l-25.7 58.57c-4.33,10.43 -9.14,19.95 -13.11,29.64 -8.21,20.02 -17.14,38.6 -25.68,58.59l-38.28 87.48c-4.09,9.51 -10.62,19.91 -12.93,29.82 7.28,-4.87 39.94,-48.8 49.59,-61.08l115.33 -145c11.12,-13.95 21.47,-27.51 32.83,-41.38l164.86 -207.41c44.35,-54.62 86.82,-110.99 131.37,-165.44 11.6,-14.17 21.81,-27.79 33.38,-42.08l263.42 -331.44c11.38,-13.9 21.69,-27.41 32.83,-41.38 11.1,-13.93 21.97,-27.41 32.86,-41.34 21.72,-27.81 45.19,-54.91 66.3,-83.37 20.99,-28.3 44.14,-54.97 65.76,-82.64l41.21 -51.86c3.12,-3.79 5.11,-6.81 8.23,-10.64 3.07,-3.78 5.63,-6.91 8.41,-10.46 2.82,-3.59 6.2,-6.29 7.55,-11.32l-477.91 0c4.94,-9.35 29.31,-37.92 36.31,-46.7l240.54 -302.77c6.32,-7.93 13.15,-15.78 18.7,-24.06 31.63,0 59.92,-1.26 90.55,-1.26 399.93,0 799.87,0 1199.8,0 24.43,0 174.56,-2.73 184.87,1.26 -4.08,2.17 -48.03,59.79 -54.94,68.32 -6.6,8.15 -12.67,15.46 -18.9,23.86 -6.03,8.12 -11.96,15.23 -18.37,23.13 -6.7,8.28 -12.16,15.62 -18.87,23.9l-37.33 46.93c-15.89,20.34 -146.72,182.35 -148.4,188.65l-481.68 0c-14.13,21.1 -58.67,74.59 -76.55,97 -6.48,8.12 -12.39,15.77 -18.87,23.9 -6.62,8.31 -13.06,15.77 -19.59,24.43 -6.62,8.81 -12.7,16.21 -19.41,24.62l-164.2 206.8c-3.21,4.06 -8.22,8.24 -9.52,13.11l977.19 0c1.42,-5.3 24.17,-31.55 27.96,-36.19l56.85 -71.43c9.97,-12.68 18.98,-23.81 28.92,-36.46 9.73,-12.39 19.04,-23.55 28.37,-35.78l172.31 -216.3c9.57,-12.24 19.4,-24.27 28.92,-36.47l100.33 -126.05c5.08,-6.21 9.67,-11.73 14.48,-18.21 27.36,-36.88 57.5,-71.69 85.87,-107.81 18.96,-24.13 39.08,-47.69 57.32,-72.23 4.33,-5.83 9.83,-12.38 14.51,-18.18l71.92 -90.32c43.08,-53.99 85,-108.34 128.74,-161.78 5.09,-6.23 9.61,-11.76 14.43,-18.26 4.81,-6.49 9.4,-12 14.49,-18.22 6.06,-7.41 70.12,-86.08 71.39,-90.84 -205.94,0 -409.48,-1.26 -616.25,-1.26l-1545.65 0c-103.93,0 -204.03,-1.26 -308.13,-1.26 -4.26,6.36 -8.59,11.84 -13.54,17.9l-100.74 126.9c-38.44,48.24 -76.34,96.04 -114.78,144.29l-171.97 216.65c-76.79,96.39 -152.35,193.68 -229.93,289.49l-114.67 144.39c-38.04,47.75 -77.57,96.01 -114.6,144.48l-43.5 54.61c-4.92,6.27 -10.22,12.12 -14.37,18.32z"/>
  </g>
 </g>
</svg>
