<svg width="32" height="32" viewBox="0 0 32 32" fill="none" xmlns="http://www.w3.org/2000/svg">
<path fill-rule="evenodd" clip-rule="evenodd" d="M0 16.6252H6.85428C7.1631 16.6252 9 16.5887 9.13636 16.6252C9.0762 16.7591 9.02406 16.8849 8.9639 17.031C8.90374 17.1771 8.83556 17.311 8.78342 17.4368C8.73128 17.5626 8.6631 17.7168 8.60294 17.8425C8.17781 18.7962 7.75267 19.8715 7.32353 20.7886L6.96256 21.6326C6.71791 22.1886 6.47727 22.7526 6.22861 23.3085L5.50668 24.9763C5.35027 25.3578 5.14171 25.865 4.96524 26.2302L4.60027 27.0702C4.5401 27.2203 4.47192 27.3583 4.41577 27.476C4.29946 27.7641 4.17112 28.0319 4.0508 28.316L3.50936 29.5739C3.43476 29.7098 3.37298 29.8524 3.32486 30C3.5755 29.7219 3.80986 29.4292 4.02674 29.1235L5.6631 27.0459C5.81952 26.843 5.96791 26.6401 6.12834 26.4493L8.46257 23.4749C9.09225 22.6917 9.69385 21.8842 10.3275 21.101C10.492 20.8981 10.6364 20.6953 10.8008 20.5005L14.5348 15.7446C14.6952 15.5458 14.8436 15.3388 15 15.1522C15.1564 14.9655 15.3128 14.7464 15.4652 14.5597C15.7741 14.1539 16.107 13.7725 16.4037 13.3626C16.7005 12.9528 17.0294 12.5754 17.3382 12.1777L17.9238 11.4351L18.0401 11.2809C18.0813 11.2329 18.1202 11.1828 18.1564 11.1308C18.2036 11.0852 18.2406 11.0298 18.2647 10.9685H11.4826C11.6417 10.7361 11.813 10.5126 11.996 10.2989L15.4051 5.95699C15.4992 5.84679 15.5876 5.73165 15.6698 5.61207C16.119 5.61207 16.5201 5.61207 16.9572 5.61207H33.9666C34.3115 5.61207 36.4412 5.57554 36.5856 5.61207C36.5294 5.64047 35.9037 6.46828 35.8075 6.59002C35.7112 6.71176 35.627 6.81321 35.5388 6.93494C35.4505 7.05668 35.3703 7.15001 35.2781 7.26363C35.1858 7.37725 35.1056 7.49086 35.0094 7.60854L34.4799 8.28215C34.2553 8.57432 32.4024 10.8954 32.3783 10.9888H25.5602C25.3596 11.2891 24.7299 12.056 24.4773 12.3766L24.2086 12.7215C24.1163 12.8392 24.0241 12.9487 23.9318 13.0705L23.6551 13.4235L21.3289 16.3898C21.2717 16.444 21.2254 16.5087 21.1925 16.5805H35.0455C35.166 16.3974 35.3 16.2238 35.4465 16.0611L36.2487 15.0345L36.6497 14.511C36.7901 14.3365 36.9225 14.1742 37.0508 13.9997L39.4933 10.8954C39.6257 10.7209 39.766 10.5505 39.8944 10.372L41.3142 8.56621C41.3864 8.47694 41.4545 8.39578 41.5227 8.30245C41.9238 7.77492 42.3249 7.2758 42.7259 6.75639C42.9947 6.41147 43.2794 6.07466 43.5281 5.72162C43.5882 5.63641 43.6644 5.54308 43.7326 5.46193L44.7513 4.16746C45.365 3.3924 45.9545 2.61328 46.5762 1.84634C46.6484 1.75707 46.7126 1.67591 46.7808 1.58258C46.8489 1.48925 46.9171 1.41214 46.9893 1.32287C47.0615 1.2336 47.9799 0.105506 48 0.0202907C45.0802 0.0202907 42.1965 0 39.2647 0H17.3824C15.9104 0 14.4906 0 13.0147 0C12.9554 0.0888235 12.8911 0.174178 12.8222 0.255649L11.3944 2.09793L9.76604 4.16746L7.33155 7.27174C6.24064 8.65548 5.16978 10.0514 4.07085 11.427L2.46658 13.4965C1.92513 14.1823 1.36363 14.8722 0.838234 15.5701L0.224598 16.3533C0.152405 16.4426 0.0802121 16.5278 0.0200516 16.6171" fill="black"/>
</svg>
